<?xml version="1.0" standalone="no"?>
<!DOCTYPE svg PUBLIC "-//W3C//DTD SVG 20010904//EN"
 "http://www.w3.org/TR/2001/REC-SVG-20010904/DTD/svg10.dtd">
<svg version="1.0" xmlns="http://www.w3.org/2000/svg"
 width="300.000000pt" height="300.000000pt" viewBox="0 0 300.000000 300.000000"
 preserveAspectRatio="xMidYMid meet">
<metadata>
Created by potrace 1.11, written by Peter Selinger 2001-2013
</metadata>
<g transform="translate(0.000000,300.000000) scale(0.100000,-0.100000)"
fill="#000000" stroke="none">
<path d="M2570 1579 c-47 -33 -112 -78 -145 -101 -33 -23 -63 -46 -67 -52 -4
-6 -7 -258 -5 -561 l2 -550 160 0 160 0 1 650 c1 358 -1 656 -3 663 -3 6 -8
12 -12 12 -3 -1 -44 -28 -91 -61z"/>
<path d="M1243 1462 l-153 -147 0 -503 0 -502 160 0 160 0 0 650 c0 358 -3
650 -7 649 -5 0 -77 -66 -160 -147z"/>
<path d="M1510 960 l0 -650 160 0 160 0 0 574 0 575 -149 75 c-83 42 -155 76
-160 76 -8 0 -11 -197 -11 -650z"/>
<path d="M1930 855 l0 -545 160 0 160 0 0 520 c0 286 -4 520 -8 520 -4 0 -25
-9 -47 -20 -22 -11 -45 -20 -52 -20 -8 0 -54 20 -103 45 -49 25 -94 45 -100
45 -7 0 -10 -181 -10 -545z"/>
<path d="M885 1137 c-50 -44 -118 -106 -152 -137 l-62 -57 -1 -304 c0 -167 -1
-310 0 -316 0 -10 39 -13 160 -13 l160 0 0 449 c0 248 -3 452 -8 455 -4 2 -48
-32 -97 -77z"/>
<path d="M245 1038 c-3 -7 -4 -173 -3 -368 l3 -355 160 0 160 0 3 321 c2 249
-1 324 -10 332 -7 5 -67 23 -133 40 -181 45 -175 44 -180 30z"/>
</g>
</svg>
